<svg xmlns="http://www.w3.org/2000/svg" xmlns:svg="http://www.w3.org/2000/svg" id="svg2" width="16" height="16" version="1.1"><title id="title2993">Humbug Hat</title><metadata id="metadata7"/><linearGradient id="a" x1="0" x2="0" y1="0" y2="1"><stop offset="0" stop-color="#50adff"/><stop offset="1" stop-color="#7877fc"/></linearGradient><g><path fill="url(#a)" d="M688.52 150.67c0 33.91-15.23 64.04-38.44 82.31L424.79 434.17c-4.18 3.59-9.62-2.19-6.61-7.03l82.64-165.46c2.31-4.63-.69-10.33-5.44-10.33H174.86c-49.64 0-90.26-45.31-90.26-100.68 0-55.37 40.62-100.68 90.26-100.68h423.39c49.65 0 90.27 45.31 90.27 100.68zM174.86 723.13h423.39c49.64 0 90.26-45.31 90.26-100.68 0-55.37-40.62-100.68-90.26-100.68H277.73c-4.75 0-7.76-5.7-5.44-10.33l82.64-165.46c3.01-4.83-2.42-10.62-6.61-7.03L123.04 540.14c-23.21 18.27-38.44 48.4-38.44 82.31 0 55.37 40.62 100.68 90.26 100.68z" transform="translate(8 8) scale(0.023769201057729446) translate(-386.56 -386.56)"/></g><g id="layer1" transform="translate(-112.53125,-681.00001)"><g id="g3825" transform="matrix(1.7498801,0,0,1.2477417,-86.966217,-171.8859)"><text style="font-size:10px;font-style:normal;font-variant:normal;font-weight:400;font-stretch:normal;line-height:125%;letter-spacing:0;word-spacing:0;fill:none;stroke:#fff;stroke-width:2;stroke-miterlimit:4;stroke-opacity:.84705882;stroke-dasharray:none;font-family:Monospace;-inkscape-font-specification:Monospace" id="number_back" x="116.344" y="696.094" xml:space="preserve"><tspan id="tspan3804" x="116.344" y="696.094">∞</tspan></text><text id="number_front" x="116.344" y="696.094" xml:space="preserve" style="font-size:10px;font-style:normal;font-variant:normal;font-weight:400;font-stretch:normal;line-height:125%;letter-spacing:0;word-spacing:0;fill:#000;fill-opacity:1;stroke:none;font-family:Monospace;-inkscape-font-specification:Monospace"><tspan id="tspan3800" x="116.344" y="696.094">∞</tspan></text></g></g></svg>